<?xml version="1.0" standalone="no"?><!DOCTYPE svg PUBLIC "-//W3C//DTD SVG 1.1//EN" "http://www.w3.org/Graphics/SVG/1.1/DTD/svg11.dtd"><svg t="1715664096593" class="icon" viewBox="0 0 1024 1024" version="1.1" xmlns="http://www.w3.org/2000/svg" p-id="2913" xmlns:xlink="http://www.w3.org/1999/xlink" width="128" height="128"><path d="M512 943.85339507C273.48736991 943.85339507 80.14660493 750.51263009 80.14660493 512 80.14660493 273.48736991 273.48736991 80.14660493 512 80.14660493c238.51263009 0 431.85339507 193.34076497 431.85339507 431.85339507 0 238.51263009-193.34076497 431.85339507-431.85339507 431.85339507z m14.39511346-348.79359179c29.3948208 3.67075386 58.01230636 4.31853395 86.65858098 1.77059891 19.43340277-1.72741358 37.80156747-7.05360573 54.1256258-18.48332531 32.23065866-22.60032796 41.9905454-71.86040493 20.45545552-103.78876623-12.3366117-18.31058395-31.0502591-25.59451094-51.24660259-29.94183567-29.56756217-6.36264031-59.42302715-4.85115342-89.27849215-2.87902237-4.77917729 0.30229739-5.70046481 2.59112036-6.10352827 6.92404972-2.59112036 27.566642-5.51332806 55.09009781-8.27718978 82.62794904-2.11608164 20.93049427-4.16018799 41.86098938-6.33384952 63.7703519z m45.0423091-28.61748556c1.6554383-17.63401391 3.0661591-33.18073614 4.57764599-48.7274575 1.30995558-13.41624519 2.87902236-26.80370044 3.98744578-40.23434187 0.30229739-3.61317312 1.30995558-5.61409414 5.02389477-5.38377205 13.17152855 0.87810219 26.74612054 0.02878994 39.41381959 3.0805545 30.77675168 7.44227379 41.09804781 45.80524983 19.69251481 70.03222528-13.34426991 15.10047344-31.00707377 19.89404612-49.97983236 21.16081635-7.13997641 0.46064335-14.35192812 0.07197529-22.71548858 0.07197529zM512 446.45905003c-1.8425742-0.54701402-2.97978842-0.99326281-4.16018799-1.2091895-31.81319983-5.80123089-63.84232719-7.02481494-95.85705831-2.37519369-17.6915938 2.56233042-34.59145694 8.0036832-48.48274087 19.67811943-19.39021743 16.29526839-18.25300321 39.51458565 3.7139392 52.29744614 11.01226158 6.40582564 23.6367761 10.55161823 35.93020247 14.58224936 11.87596836 3.88668056 24.45729756 5.75804554 36.39084581 9.50077469 10.62359352 3.31087575 11.81838763 12.07749967 3.02297377 18.81441347-2.82144247 2.15926698-6.27626962 4.289744-9.7310968 4.85115259-9.44319396 1.54027683-19.1455008 3.6995438-28.53111402 3.0085792-20.32589951-1.4970915-40.52224386-4.60643594-61.19362607-7.11118646-1.15160877 8.95376067-2.47595975 19.47658812-3.84349521 30.31610834 3.52680244 1.15160877 6.47780092 2.30321839 9.50077469 3.05176454 28.63188009 7.16876636 57.68121819 8.10444844 86.80253241 4.31853395 16.94304848-2.20245231 33.29589676-6.66493768 47.82056622-16.05055174 24.12620938-15.58990757 30.94949304-48.23802424-3.94426129-63.5832143-12.23584648-5.38377204-25.46495492-8.78101931-38.36297688-12.72528061-9.63033072-2.93660309-19.66372487-4.73599196-29.12131338-8.03247315-8.24839984-2.87902236-9.40000862-10.2925062-2.56233042-15.51793143 3.92986591-2.99418382 9.04013136-5.90199612 13.81930865-6.21868889a405.58231325 405.58231325 0 0 1 45.02791371-0.71975622c12.96999725 0.59019936 25.85362297 2.99418382 39.21228826 4.66401667L512 446.45905003z m216.89117039 1.72741357L713.53158408 598.28430833h45.67569466c4.03063197-38.49253289 8.19081911-76.52442159 11.86157295-114.61389104 0.51822408-5.36937749 1.98652562-7.45666835 7.32711233-7.60061976 9.6447261-0.23032209 19.30384676-1.66983285 28.91978292-1.32435013 20.00920758 0.71975538 35.75746111 8.20521451 32.38900462 36.49161189-2.44716896 20.46985092-4.7215974 40.9684918-6.95283965 61.46713267-0.92128753 8.4931165-1.54027683 17.02941915-2.30321839 25.65209166h46.66895661c3.02297377-29.74030353 6.73691297-59.09193983 8.8529946-88.55873593 2.87902236-40.03280973-14.98531281-61.84140618-54.55747835-67.65703161-34.5482716-5.06708013-68.60710908-0.28790197-102.52199598 6.01715673z m-407.81355635 113.53425756c-7.37029767 1.09402888-13.81930864 2.36079828-20.32589951 2.93660309-21.63585509 1.88575954-43.28610558 3.32527114-64.36055127-3.59877858-11.73201696-3.87228517-20.81533364-10.60919812-25.13386759-21.89496712-6.66493768-17.46127256 0.74854616-39.73051234 16.7271218-50.87232994 14.65422548-10.22053007 31.81319983-13.43064059 49.30326232-13.43064059 19.01594478-0.01439539 38.03188871 2.04410636 57.55166217 3.23890047L339.25864198 444.77482179c-12.71088522-1.45390614-24.87475556-3.31087575-37.11060204-4.1457926-34.59145694-2.36079828-68.01690973 2.20245231-99.08156338 17.25974041-25.32100435 12.27903181-43.90509488 30.37368906-49.49039908 57.4652915-6.62175233 32.17307793 9.7310968 58.6169011 43.66037825 72.40741979 16.15131698 6.54977621 33.1375508 10.55161823 50.61321791 10.62359352 20.87291437 0.08637067 41.74582791-1.32435013 62.58995149-2.49035514 2.61991031-0.14395141 7.0104204-2.44716896 7.31271777-4.24655782 1.66983285-9.74549134 2.30321839-19.63493408 3.32527115-29.91304574z" fill="#ffffff" p-id="2914"></path></svg>