<?xml version="1.0" standalone="no"?><!DOCTYPE svg PUBLIC "-//W3C//DTD SVG 1.1//EN" "http://www.w3.org/Graphics/SVG/1.1/DTD/svg11.dtd"><svg t="1715415059948" class="icon" viewBox="0 0 1024 1024" version="1.1" xmlns="http://www.w3.org/2000/svg" p-id="4448" width="128" height="128" xmlns:xlink="http://www.w3.org/1999/xlink"><path d="M533.333333 682.666667H42.666667v106.666666c0 46.933333 38.4 85.333333 85.333333 85.333334h492.8c-53.333333-46.933333-87.466667-115.2-87.466667-192z m-266.666666 128h-106.666667c-17.066667 0-32-14.933333-32-32S142.933333 746.666667 160 746.666667h106.666667c17.066667 0 32 14.933333 32 32s-14.933333 32-32 32zM704 170.666667H128c-46.933333 0-85.333333 38.4-85.333333 85.333333v106.666667h746.666666v-106.666667c0-46.933333-38.4-85.333333-85.333333-85.333333z m-437.333333 128h-106.666667c-17.066667 0-32-14.933333-32-32S142.933333 234.666667 160 234.666667h106.666667c17.066667 0 32 14.933333 32 32s-14.933333 32-32 32z m298.666666 0c-17.066667 0-32-14.933333-32-32s14.933333-32 32-32 32 14.933333 32 32-14.933333 32-32 32z m106.666667 0c-17.066667 0-32-14.933333-32-32s14.933333-32 32-32 32 14.933333 32 32-14.933333 32-32 32zM42.666667 618.666667h499.2c14.933333-57.6 49.066667-106.666667 93.866666-140.8h2.133334l19.2-12.8 2.133333-2.133334c6.4-4.266667 12.8-6.4 19.2-10.666666 2.133333 0 2.133333-2.133333 4.266667-2.133334 6.4-2.133333 12.8-4.266667 19.2-8.533333 2.133333 0 4.266667-2.133333 6.4-2.133333 6.4-2.133333 12.8-4.266667 19.2-4.266667 2.133333 0 4.266667-2.133333 6.4-2.133333 6.4-2.133333 12.8-2.133333 19.2-4.266667 2.133333 0 4.266667 0 6.4-2.133333 8.533333 0 17.066667-2.133333 27.733333-2.133334H42.666667V618.666667z m117.333333-128h106.666667c17.066667 0 32 14.933333 32 32s-14.933333 32-32 32h-106.666667c-17.066667 0-32-14.933333-32-32S142.933333 490.666667 160 490.666667z" p-id="4449" fill="#fc9bfe"></path><path d="M789.333333 490.666667c-106.666667 0-192 85.333333-192 192s85.333333 192 192 192 192-85.333333 192-192-85.333333-192-192-192z m-10.666666 283.733333l-64 36.266667-64-36.266667v-74.666667l64-36.266666 64 36.266666v74.666667zM725.333333 644.266667v-74.666667l64-36.266667 64 36.266667v74.666667L789.333333 682.666667l-64-38.4z m138.666667 166.4l-64-36.266667v-74.666667l64-36.266666 64 36.266666v74.666667l-64 36.266667z" p-id="4450" fill="#fc9bfe"></path></svg>