<?xml version="1.0" standalone="no"?><!DOCTYPE svg PUBLIC "-//W3C//DTD SVG 1.1//EN" "http://www.w3.org/Graphics/SVG/1.1/DTD/svg11.dtd"><svg t="1715401397228" class="icon" viewBox="0 0 1024 1024" version="1.1" xmlns="http://www.w3.org/2000/svg" p-id="5475" xmlns:xlink="http://www.w3.org/1999/xlink" width="200" height="200"><path d="M512 1024c282.624 0 512-229.376 512-512S794.624 0 512 0 0 229.376 0 512s229.376 512 512 512zM329.728 182.272c0-24.576 11.264-34.816 35.84-35.84 29.696 0 52.224 13.312 70.656 34.816 19.456 23.552 28.672 51.2 28.672 80.896v369.664c0 6.144-5.12 12.288-7.168 18.432-5.12-4.096-14.336-7.168-16.384-12.288-4.096-9.216-5.12-20.48-5.12-30.72 0-111.616 0-224.256-1.024-335.872 0-20.48-6.144-41.984-14.336-61.44-10.24-22.528-31.744-34.816-60.416-33.792 0 9.216-1.024 16.384-1.024 24.576V601.088c3.072 59.392 32.768 92.16 91.136 95.232 56.32 3.072 113.664 1.024 169.984 3.072 23.552 1.024 48.128 5.12 69.632 14.336 31.744 13.312 53.248 39.936 60.416 74.752 6.144 27.648-8.192 45.056-36.864 46.08h-163.84c-43.008 0-87.04-30.72-98.304-66.56 14.336-7.168 25.6-3.072 35.84 7.168 21.504 23.552 47.104 31.744 78.848 30.72 45.056-1.024 89.088 0 134.144 0h21.504c0-39.936-34.816-73.728-79.872-75.776-50.176-2.048-100.352 0-149.504-1.024-21.504 0-43.008-1.024-63.488-6.144-59.392-12.288-95.232-52.224-97.28-112.64-2.048-100.352-1.024-201.728-2.048-302.08-1.024-44.032-1.024-84.992 0-125.952z" fill="#ffffff" p-id="5476"></path></svg>